<svg viewBox="0 0 400 200" xmlns="http://www.w3.org/2000/svg" role="img" aria-label="Disposable items illustration">
  <defs>
    <linearGradient id="g-dispbg" x1="0" y1="0" x2="1" y2="1">
      <stop offset="0%" stop-color="#eff6ff" />
      <stop offset="100%" stop-color="#ecfccb" />
    </linearGradient>
    <linearGradient id="g-cup1" x1="0" y1="0" x2="0" y2="1">
      <stop offset="0%" stop-color="#60a5fa" />
      <stop offset="100%" stop-color="#2563eb" />
    </linearGradient>
    <linearGradient id="g-cup2" x1="0" y1="0" x2="0" y2="1">
      <stop offset="0%" stop-color="#4ade80" />
      <stop offset="100%" stop-color="#16a34a" />
    </linearGradient>
    <filter id="f-shadow" x="-20%" y="-20%" width="140%" height="160%">
      <feDropShadow dx="0" dy="2" stdDeviation="2" flood-color="#0f172a" flood-opacity="0.2" />
    </filter>
    <filter id="f-sm" x="-20%" y="-20%" width="140%" height="160%">
      <feDropShadow dx="0" dy="1" stdDeviation="1.2" flood-color="#0f172a" flood-opacity="0.16" />
    </filter>
  </defs>

  <rect width="400" height="200" fill="url(#g-dispbg)" />
  <rect x="0" y="170" width="400" height="30" fill="#f8fafc" />
  <rect x="0" y="168" width="400" height="4" fill="#e2e8f0" />

  <g filter="url(#f-shadow)">
    <path d="M38 168 L45 122 L80 122 L87 168 Z" fill="url(#g-cup1)" />
    <ellipse cx="62" cy="122" rx="17" ry="4.5" fill="#3b82f6" />
    <ellipse cx="62" cy="168" rx="24" ry="6" fill="#1d4ed8" opacity="0.5" />
    <path d="M45 125 L50 98 L74 98 L79 125 Z" fill="#1e40af" opacity="0.7" />
    <ellipse cx="62" cy="98" rx="12" ry="3.5" fill="#2563eb" opacity="0.8" />
    <path d="M50 101 L53 79 L71 79 L74 101 Z" fill="#1e3a8a" opacity="0.6" />
    <ellipse cx="62" cy="79" rx="10" ry="3" fill="#60a5fa" opacity="0.6" />
    <text x="62" y="182" font-size="7" fill="#1e3a8a" text-anchor="middle" font-family="sans-serif" font-weight="bold">200ml × 50</text>
  </g>

  <g filter="url(#f-shadow)">
    <ellipse cx="170" cy="175" rx="58" ry="12" fill="#e2e8f0" />
    <ellipse cx="170" cy="169" rx="54" ry="11" fill="#f1f5f9" />
    <ellipse cx="170" cy="163" rx="50" ry="10" fill="white" />
    <ellipse cx="170" cy="157" rx="46" ry="9" fill="#f8fafc" />
    <ellipse cx="170" cy="151" rx="42" ry="8.5" fill="white" />
    <ellipse cx="170" cy="145" rx="38" ry="8" fill="#f1f5f9" />
    <ellipse cx="170" cy="139" rx="34" ry="7.5" fill="white" />
    <text x="170" y="190" font-size="7" fill="#6b7280" text-anchor="middle" font-family="sans-serif" font-weight="bold">Plates 9&quot; × 50</text>
  </g>

  <g filter="url(#f-shadow)">
    <path d="M248 168 L255 126 L285 126 L292 168 Z" fill="url(#g-cup2)" />
    <ellipse cx="270" cy="126" rx="15" ry="4" fill="#22c55e" />
    <ellipse cx="270" cy="168" rx="22" ry="5.5" fill="#166534" opacity="0.5" />
    <path d="M255 129 L259 106 L281 106 L285 129 Z" fill="#15803d" opacity="0.7" />
    <ellipse cx="270" cy="106" rx="13" ry="3.5" fill="#16a34a" opacity="0.8" />
    <text x="270" y="182" font-size="7" fill="#15803d" text-anchor="middle" font-family="sans-serif" font-weight="bold">150ml × 100</text>
  </g>

  <g filter="url(#f-shadow)">
    <rect x="312" y="122" width="60" height="48" rx="7" fill="#ea580c" />
    <rect x="312" y="122" width="60" height="14" rx="7" fill="#c2410c" />
    <ellipse cx="342" cy="122" rx="18" ry="5.5" fill="#f97316" />
    <path d="M329 116 Q342 110 355 116" stroke="white" stroke-width="2.5" fill="none" stroke-linecap="round" />
    <text x="342" y="156" font-size="7" fill="white" text-anchor="middle" font-family="sans-serif" font-weight="bold">TISSUES</text>
  </g>

  <g filter="url(#f-sm)">
    <rect x="314" y="176" width="56" height="20" rx="4" fill="#1f2937" opacity="0.8" />
    <rect x="317" y="176" width="4" height="20" rx="2" fill="#ea580c" />
    <rect x="323" y="176" width="4" height="20" rx="2" fill="#2563eb" />
    <rect x="329" y="176" width="4" height="20" rx="2" fill="#16a34a" />
    <rect x="335" y="176" width="4" height="20" rx="2" fill="#dc2626" />
    <rect x="341" y="176" width="4" height="20" rx="2" fill="#d97706" />
    <rect x="347" y="176" width="4" height="20" rx="2" fill="#8b5cf6" />
    <rect x="353" y="176" width="4" height="20" rx="2" fill="#ea580c" />
  </g>
</svg>
