<svg viewBox="0 0 400 200" xmlns="http://www.w3.org/2000/svg" role="img" aria-label="Pantry supplies illustration">
  <defs>
    <linearGradient id="g-pantbg" x1="0" y1="0" x2="1" y2="1">
      <stop offset="0%" stop-color="#eff6ff" />
      <stop offset="100%" stop-color="#fef3c7" />
    </linearGradient>
    <linearGradient id="g-mug" x1="0" y1="0" x2="0" y2="1">
      <stop offset="0%" stop-color="#2563eb" />
      <stop offset="100%" stop-color="#1e3a8a" />
    </linearGradient>
    <linearGradient id="g-tata" x1="0" y1="0" x2="0" y2="1">
      <stop offset="0%" stop-color="#dc2626" />
      <stop offset="100%" stop-color="#991b1b" />
    </linearGradient>
    <linearGradient id="g-nesc" x1="0" y1="0" x2="0" y2="1">
      <stop offset="0%" stop-color="#ef4444" />
      <stop offset="100%" stop-color="#b91c1c" />
    </linearGradient>
    <linearGradient id="g-sugar" x1="0" y1="0" x2="0" y2="1">
      <stop offset="0%" stop-color="#e2e8f0" />
      <stop offset="100%" stop-color="#94a3b8" />
    </linearGradient>
    <filter id="f-shadow" x="-20%" y="-20%" width="140%" height="160%">
      <feDropShadow dx="0" dy="2" stdDeviation="2" flood-color="#0f172a" flood-opacity="0.2" />
    </filter>
    <filter id="f-sm" x="-20%" y="-20%" width="140%" height="160%">
      <feDropShadow dx="0" dy="1" stdDeviation="1.2" flood-color="#0f172a" flood-opacity="0.16" />
    </filter>
  </defs>

  <rect width="400" height="200" fill="url(#g-pantbg)" />
  <rect x="0" y="165" width="400" height="35" fill="#f1f5f9" />
  <rect x="0" y="163" width="400" height="4" fill="#cbd5e1" />

  <g filter="url(#f-shadow)">
    <ellipse cx="96" cy="163" rx="44" ry="8" fill="#e2e8f0" />
    <ellipse cx="96" cy="160" rx="40" ry="7" fill="#cbd5e1" />
    <rect x="58" y="110" width="76" height="55" rx="11" fill="url(#g-mug)" />
    <rect x="58" y="110" width="76" height="16" rx="11" fill="#1e3a8a" />
    <ellipse cx="96" cy="110" rx="38" ry="8" fill="#1d4ed8" />
    <ellipse cx="96" cy="117" rx="32" ry="6" fill="#451a03" />
    <ellipse cx="96" cy="115" rx="26" ry="4" fill="#6f3802" />
    <path d="M134 123 Q152 123 152 134 Q152 148 134 148" stroke="#1e3a8a" stroke-width="9" fill="none" />
    <path d="M134 123 Q148 123 148 134 Q148 146 134 146" stroke="#3b82f6" stroke-width="4.5" fill="none" />
    <rect x="68" y="138" width="56" height="18" rx="2" fill="white" opacity="0.1" />
    <text x="96" y="149" font-size="8" fill="white" text-anchor="middle" font-family="sans-serif" font-weight="bold">COFFEE</text>
    <path d="M78 105 Q82 95 78 85" stroke="#d97706" stroke-width="2" fill="none" stroke-linecap="round" opacity="0.6" />
    <path d="M96 101 Q100 89 96 77" stroke="#d97706" stroke-width="2" fill="none" stroke-linecap="round" opacity="0.6" />
    <path d="M114 105 Q118 95 114 85" stroke="#d97706" stroke-width="2" fill="none" stroke-linecap="round" opacity="0.6" />
  </g>

  <g filter="url(#f-shadow)">
    <rect x="160" y="120" width="52" height="58" rx="4" fill="url(#g-tata)" />
    <rect x="160" y="120" width="52" height="18" rx="4" fill="#7f1d1d" />
    <text x="186" y="132" font-size="8" fill="white" text-anchor="middle" font-family="sans-serif" font-weight="bold">TATA TEA</text>
    <text x="186" y="152" font-size="9" fill="white" text-anchor="middle" font-family="sans-serif" font-weight="bold">PREMIUM</text>
    <rect x="165" y="158" width="42" height="14" rx="2" fill="white" opacity="0.1" />
    <text x="186" y="168" font-size="6" fill="#fca5a5" text-anchor="middle" font-family="sans-serif">ASSAM BLEND</text>
  </g>

  <g filter="url(#f-shadow)">
    <rect x="225" y="108" width="48" height="65" rx="7" fill="url(#g-nesc)" />
    <rect x="225" y="108" width="48" height="14" rx="7" fill="#7f1d1d" />
    <rect x="222" y="100" width="54" height="13" rx="5" fill="#b91c1c" />
    <text x="249" y="146" font-size="10" fill="white" text-anchor="middle" font-family="sans-serif" font-weight="bold">Nescafe</text>
    <text x="249" y="158" font-size="6" fill="#fca5a5" text-anchor="middle" font-family="sans-serif">CLASSIC</text>
    <rect x="225" y="108" width="7" height="65" rx="3" fill="white" opacity="0.08" />
  </g>

  <g filter="url(#f-shadow)">
    <rect x="284" y="116" width="48" height="57" rx="7" fill="url(#g-sugar)" />
    <rect x="281" y="108" width="54" height="13" rx="5" fill="#cbd5e1" />
    <rect x="290" y="136" width="36" height="30" rx="3" fill="white" opacity="0.8" />
    <text x="308" y="154" font-size="7" fill="#64748b" text-anchor="middle" font-family="sans-serif" font-weight="bold">SUGAR</text>
    <rect x="284" y="116" width="7" height="57" rx="3" fill="white" opacity="0.35" />
  </g>

  <g filter="url(#f-sm)">
    <rect x="344" y="120" width="42" height="52" rx="4" fill="#1e40af" />
    <rect x="344" y="120" width="42" height="13" rx="4" fill="#1e3a8a" />
    <text x="365" y="132" font-size="7" fill="white" text-anchor="middle" font-family="sans-serif" font-weight="bold">NESTLE</text>
    <text x="365" y="150" font-size="6" fill="#bfdbfe" text-anchor="middle" font-family="sans-serif">MILK</text>
    <text x="365" y="160" font-size="6" fill="#bfdbfe" text-anchor="middle" font-family="sans-serif">POWDER</text>
  </g>
</svg>
