<svg viewBox="0 0 400 200" xmlns="http://www.w3.org/2000/svg" role="img" aria-label="Promotional items illustration">
  <defs>
    <linearGradient id="g-giftbg" x1="0" y1="0" x2="1" y2="1">
      <stop offset="0%" stop-color="#fffbeb" />
      <stop offset="100%" stop-color="#fef3c7" />
    </linearGradient>
    <linearGradient id="g-gbox" x1="0" y1="0" x2="0" y2="1">
      <stop offset="0%" stop-color="#a8a29e" />
      <stop offset="100%" stop-color="#57534e" />
    </linearGradient>
    <linearGradient id="g-ribbon" x1="0" y1="0" x2="0" y2="1">
      <stop offset="0%" stop-color="#f59e0b" />
      <stop offset="100%" stop-color="#b45309" />
    </linearGradient>
    <linearGradient id="g-glid" x1="0" y1="0" x2="0" y2="1">
      <stop offset="0%" stop-color="#d6d3d1" />
      <stop offset="100%" stop-color="#a8a29e" />
    </linearGradient>
    <linearGradient id="g-bow" x1="0" y1="0" x2="1" y2="1">
      <stop offset="0%" stop-color="#f59e0b" />
      <stop offset="100%" stop-color="#b45309" />
    </linearGradient>
    <linearGradient id="g-trophy" x1="0" y1="0" x2="0" y2="1">
      <stop offset="0%" stop-color="#fcd34d" />
      <stop offset="100%" stop-color="#d97706" />
    </linearGradient>
    <linearGradient id="g-mug" x1="0" y1="0" x2="0" y2="1">
      <stop offset="0%" stop-color="#2563eb" />
      <stop offset="100%" stop-color="#1e3a8a" />
    </linearGradient>
    <filter id="f-big" x="-20%" y="-20%" width="140%" height="170%">
      <feDropShadow dx="0" dy="2" stdDeviation="2.2" flood-color="#292524" flood-opacity="0.22" />
    </filter>
    <filter id="f-sm" x="-20%" y="-20%" width="140%" height="170%">
      <feDropShadow dx="0" dy="1" stdDeviation="1.2" flood-color="#292524" flood-opacity="0.18" />
    </filter>
  </defs>

  <rect width="400" height="200" fill="url(#g-giftbg)" />
  <ellipse cx="200" cy="130" rx="170" ry="80" fill="#d97706" opacity="0.05" />

  <text x="42" y="55" font-size="12" fill="#fbbf24" opacity="0.5" font-family="sans-serif">✦</text>
  <text x="348" y="62" font-size="9" fill="#fbbf24" opacity="0.4" font-family="sans-serif">✦</text>
  <text x="355" y="42" font-size="7" fill="#f59e0b" opacity="0.35" font-family="sans-serif">✦</text>

  <g filter="url(#f-big)">
    <rect x="98" y="114" width="204" height="82" rx="5" fill="url(#g-gbox)" />
    <rect x="98" y="114" width="204" height="82" rx="5" stroke="#44403c" stroke-width="0.8" fill="none" />
    <rect x="98" y="148" width="204" height="14" fill="url(#g-ribbon)" />
    <rect x="98" y="149" width="204" height="5" fill="#fde68a" opacity="0.25" />
    <rect x="192" y="114" width="16" height="82" fill="url(#g-ribbon)" />
    <rect x="193" y="114" width="6" height="82" fill="#fde68a" opacity="0.25" />
  </g>

  <g filter="url(#f-big)">
    <rect x="92" y="90" width="216" height="28" rx="7" fill="url(#g-glid)" />
    <rect x="92" y="90" width="216" height="28" rx="7" stroke="#57534e" stroke-width="0.5" fill="none" />
    <rect x="92" y="100" width="216" height="10" fill="url(#g-ribbon)" />
    <rect x="192" y="90" width="16" height="28" fill="url(#g-ribbon)" />
  </g>

  <g filter="url(#f-big)">
    <ellipse cx="156" cy="96" rx="38" ry="25" fill="url(#g-bow)" transform="rotate(-15,156,96)" />
    <ellipse cx="156" cy="96" rx="30" ry="18" fill="#1c1917" transform="rotate(-15,156,96)" />
    <ellipse cx="244" cy="96" rx="38" ry="25" fill="url(#g-bow)" transform="rotate(15,244,96)" />
    <ellipse cx="244" cy="96" rx="30" ry="18" fill="#1c1917" transform="rotate(15,244,96)" />
    <ellipse cx="200" cy="98" rx="20" ry="16" fill="#f59e0b" />
    <ellipse cx="200" cy="98" rx="13" ry="10" fill="#fbbf24" />
    <ellipse cx="200" cy="98" rx="7" ry="5" fill="#fde68a" />
  </g>

  <g filter="url(#f-sm)">
    <path d="M308 132 Q308 162 328 162 Q348 162 348 132 Z" fill="url(#g-trophy)" />
    <path d="M308 132 L348 132 Q350 120 328 114 Q306 120 308 132 Z" fill="#fde68a" />
    <path d="M308 145 Q298 145 298 152 Q298 160 308 160" stroke="#d97706" stroke-width="4" fill="none" />
    <path d="M348 145 Q358 145 358 152 Q358 160 348 160" stroke="#d97706" stroke-width="4" fill="none" />
    <rect x="320" y="160" width="16" height="3" rx="1" fill="#b45309" />
    <rect x="316" y="163" width="24" height="3" rx="1" fill="#d97706" />
    <text x="328" y="155" font-size="14" fill="#fbbf24" text-anchor="middle" font-family="sans-serif">★</text>
  </g>

  <g filter="url(#f-sm)">
    <rect x="32" y="148" width="48" height="48" rx="8" fill="url(#g-mug)" />
    <rect x="32" y="148" width="48" height="13" rx="8" fill="#1e3a8a" />
    <path d="M80 160 Q93 160 93 169 Q93 180 80 180" stroke="#1e3a8a" stroke-width="7" fill="none" />
    <path d="M80 160 Q90 160 90 169 Q90 178 80 178" stroke="#2563eb" stroke-width="3.5" fill="none" />
    <text x="56" y="180" font-size="8" fill="white" text-anchor="middle" font-family="sans-serif" font-weight="bold">PFS</text>
  </g>

  <text x="200" y="195" font-size="8" fill="#78716c" text-anchor="middle" font-family="sans-serif">Trophies · Mugs · Diaries · Hampers</text>
</svg>
